# xmcd
#
# Track frame offsets:
#	150
#	14800
#	32463
#	45330
#	58763
#	70300
#	90120
#	110398
#	120808
#	137205
#	151565
#	169718
#	186300
#	199790
#	211758
#	224793
#	237953
#	251488
#
# Disc length: 3571 seconds
#
# Revision: 0
# Processed by: cddbd v1.5PL3 Copyright (c) Steve Scherf et al.
# Submitted via: dBpowerAMP V4.0
#
DISCID=f00df112
DTITLE=Vern Young - The Best Of Vern Young
DYEAR=1900
DGENRE=
TTITLE0=No One Now
TTITLE1=It Rains In Missouri
TTITLE2=The Blue Birds Are Singing
TTITLE3=Yellow Roses
TTITLE4=Bury Me Beneath The Willow
TTITLE5=Teardrops In The Snow
TTITLE6=I Closed My Hearts Door
TTITLE7=Let Me Borrow Your Heart
TTITLE8=The Last Letter
TTITLE9=Moonlight On My Cabin
TTITLE10=Bringing Mary Home
TTITLE11=The Fields Have Turned Brown
TTITLE12=Too Old To Die Young
TTITLE13=Heads You Win
TTITLE14=Rebel Soldier
TTITLE15=Sweethearts In Heaven
TTITLE16=The Old Cross Road
TTITLE17=How Great Thought Art
EXTD=
EXTT0=
EXTT1=
EXTT2=
EXTT3=
EXTT4=
EXTT5=
EXTT6=
EXTT7=
EXTT8=
EXTT9=
EXTT10=
EXTT11=
EXTT12=
EXTT13=
EXTT14=
EXTT15=
EXTT16=
EXTT17=
PLAYORDER=
